# xmcd CD database file
#
# Track frame offsets:
#	150
#	20763
#	37787
#	52385
#	69303
#	87012
#	101952
#	127054
#	143287
#	159848
#	174051
#
# Disc length: 2558 seconds
#
# Revision: 0
# Processed by: cddbd v1.5.2PL0 Copyright (c) Steve Scherf et al.
# Submitted via: CdAid (MTCDDB.DLL V2003.12.21)
#
DISCID=8609fc0b
DTITLE=Big Daddy Weaver - Every Time I Breath
DYEAR=2006
DGENRE=Country
TTITLE0=Let It Rise
TTITLE1=Every Time I Breath
TTITLE2=Only Jesus
TTITLE3=All For You
TTITLE4=Hold Me Jesus
TTITLE5=The Only One
TTITLE6=All The Same
TTITLE7=When I See You
TTITLE8=Wait
TTITLE9=Who You Are To Me
TTITLE10=Trust And Obey
EXTD=ID3G:   2 YEAR: 2006
EXTT0=
EXTT1=
EXTT2=
EXTT3=
EXTT4=
EXTT5=
EXTT6=
EXTT7=
EXTT8=
EXTT9=
EXTT10=
PLAYORDER=
